<?xml version="1.0" encoding="utf-8"?>
<!-- Generator: Adobe Illustrator 25.2.1, SVG Export Plug-In . SVG Version: 6.00 Build 0)  -->
<svg version="1.1" id="Layer_1" xmlns="http://www.w3.org/2000/svg" xmlns:xlink="http://www.w3.org/1999/xlink" x="0px" y="0px"
	 viewBox="0 0 268.4 42.3" style="enable-background:new 0 0 268.4 42.3;" xml:space="preserve">
<style type="text/css">
	.st0{clip-path:url(#SVGID_2_);fill:url(#SVGID_3_);}
</style>
<g>
	<g>
		<defs>
			<path id="SVGID_1_" d="M0.4,18.3L0,22.2l0.4,3.9c0,0.2,0.2,0.2,0.2,0.2c0.2,0,0.2-0.2,0.2-0.2l0.6-3.9l-0.6-3.9
				c0-0.2-0.2-0.2-0.2-0.2S0.4,18.1,0.4,18.3 M3,16l-0.6,6.3L3,28.5c0,0.2,0.2,0.2,0.2,0.2c0.2,0,0.2-0.2,0.2-0.2l0.9-6.3L3.4,16
				c0-0.2-0.2-0.2-0.2-0.2l0,0L3,16 M11.2,15.1l-0.4,7.1l0.4,7.5c0,0.2,0.2,0.4,0.4,0.4c0.2,0,0.4-0.2,0.4-0.4l0.9-7.5l-0.6-7.1
				c0-0.2-0.2-0.4-0.4-0.4C11.4,14.7,11.2,14.9,11.2,15.1 M5.8,14.7l-0.6,7.5l0.6,7.1c0,0.2,0.2,0.4,0.4,0.4c0,0,0.2-0.2,0.2-0.4
				l0.6-7.1l-0.6-7.5c0-0.2-0.2-0.4-0.4-0.4C6,14.4,5.8,14.4,5.8,14.7 M8.4,14.4l-0.6,7.8l0.6,7.3c0,0.2,0.2,0.4,0.4,0.4
				c0.2,0,0.4-0.2,0.4-0.4l0.6-7.3l-0.6-7.8c0-0.2-0.2-0.4-0.4-0.4C8.6,14,8.6,14.2,8.4,14.4 M14,10.6l-0.6,11.6l0.6,7.5
				c0,0.2,0.2,0.4,0.4,0.4c0.4,0,0.6-0.2,0.6-0.4l0.6-7.5l-0.6-11.6c0-0.2-0.2-0.4-0.4-0.4C14.2,10.1,14,10.3,14,10.6 M16.8,8
				l-0.4,14.2l0.4,7.5c0,0.4,0.2,0.6,0.6,0.6c0.2,0,0.6-0.2,0.6-0.6l0.6-7.5L18.1,8c0-0.4-0.2-0.6-0.6-0.6S16.8,7.5,16.8,8
				 M149.8,7.1v8.2v4.3c-0.2-0.4-0.9-1.5-1.3-2.2l-6.9-10.3H138v19.6h3.9v-8.6v-4.3c0.2,0.4,0.9,1.5,1.3,2.2l7.1,10.8h3.4V7.1H149.8
				z M162.8,11h2.2c4.1,0,5.8,1.9,5.8,6c0,3.7-1.9,6-6,6h-1.9C162.8,23.1,162.8,11,162.8,11z M158.9,26.7h5.8c5,0,10.1-2.8,10.1-9.7
				c0-7.1-4.1-9.7-9.7-9.7h-6.3V7.1C158.9,7.1,158.9,26.7,158.9,26.7z M197.5,7.1v19.6h11.9v-3.9h-7.8V7.1H197.5z M256.5,11h2.2
				c4.1,0,5.8,1.9,5.8,6c0,3.7-1.9,6-6,6h-1.9V11z M252.7,26.7h5.8c4.3,0,8.8-2.2,9.9-7.3v-5c-0.9-5.2-4.5-7.1-9.5-7.1h-6.3V7.1
				C252.7,7.1,252.7,26.7,252.7,26.7z M78.7,12.7c0,3.9,2.6,5,6,5.8c3.7,0.9,4.3,1.3,4.3,2.6c0,1.5-1.1,2.2-3.4,2.2
				c-1.9,0-3.7-0.6-5-2.2l-2.8,2.6c1.5,2.2,4.3,3.7,7.5,3.7c5.4,0,7.8-2.6,7.8-6.3c0-4.3-3.4-5.4-6.5-6c-3-0.6-3.9-1.1-3.9-2.4
				c0-0.9,0.6-1.7,2.8-1.7c1.7,0,3.2,0.6,4.5,1.9l2.8-2.8c-1.9-1.9-4.1-3-7.1-3c-0.2,0-0.4,0-0.6,0C81.5,7.1,78.7,9.3,78.7,12.7
				 M100.2,17c0-3.4,1.3-6.3,4.5-6.3s4.5,2.8,4.5,6.3s-1.3,6.3-4.5,6.3S100.2,20.5,100.2,17 M96.2,17c0,6,3.2,10.1,8.4,10.1
				c5.4,0,8.6-4.1,8.6-10.1s-3.2-10.1-8.6-10.1C99.4,6.9,96.2,11,96.2,17 M129.1,6.9L129.1,6.9v11.2c0,3.2-1.5,5.2-4.1,5.2
				c-2.6,0-4.1-1.9-4.1-5.2v-11h-3.9v11c0,5.6,3.2,8.8,8,8.8c5,0,8-3.2,8-9.1v-11H129.1z M178.1,17c0,6.3,3.4,10.1,8.6,10.1
				c3.7,0,5.8-1.7,7.3-4.5l-3.2-1.9c-1.1,1.7-2.2,2.6-3.9,2.6c-3,0-4.7-2.6-4.7-6.3s1.7-6.3,4.5-6.3c1.7,0,2.8,0.9,3.7,2.2l3.7-1.7
				c-1.3-2.6-3.4-4.3-7.1-4.3C181.7,6.9,178.1,11,178.1,17 M215.2,17c0-3.4,1.3-6.3,4.5-6.3s4.5,2.8,4.5,6.3s-1.3,6.3-4.5,6.3
				S215.2,20.5,215.2,17 M211.1,17c0,6,3.2,10.1,8.4,10.1c5.4,0,8.4-4.1,8.4-10.1s-3.2-10.1-8.4-10.1C214.3,6.9,211.1,11,211.1,17
				 M243.8,6.9L243.8,6.9v11.2c0,3.2-1.5,5.2-4.1,5.2s-4.1-1.9-4.1-5.2v-11h-3.9v11c0,5.6,3.2,8.8,8,8.8c5,0,8-3.2,8-9.1v-11H243.8z
				 M28.2,7.3l-0.4,14.9l0.4,7.1c0,0.4,0.4,0.9,0.9,0.9c0.4,0,0.9-0.4,0.9-0.9l0.4-7.1L30,7.1c0-0.4-0.4-0.9-0.9-0.9
				C28.5,6.5,28.2,6.7,28.2,7.3 M19.6,6.7l-0.4,15.5l0.4,7.3c0,0.4,0.2,0.6,0.6,0.6c0.4,0,0.6-0.2,0.6-0.6l0.4-7.3L20.9,6.7
				c0-0.4-0.2-0.6-0.6-0.6C19.8,6,19.6,6.5,19.6,6.7 M25.2,6.7l-0.4,15.5l0.4,7.3c0,0.4,0.4,0.9,0.9,0.9c0.4,0,0.9-0.4,0.9-0.9
				l0.4-7.3L26.9,6.7c0-0.4-0.4-0.9-0.9-0.9C25.7,5.8,25.2,6.3,25.2,6.7 M22.4,6.3l-0.4,16l0.4,7.3c0,0.4,0.2,0.6,0.6,0.6
				c0.4,0,0.6-0.2,0.6-0.6l0.4-7.3l-0.4-16c0-0.4-0.4-0.6-0.6-0.6C22.9,5.6,22.4,5.8,22.4,6.3 M31,4.3l-0.4,17.9l0.4,7.1
				c0,0.4,0.4,0.9,0.9,0.9c0.4,0,0.9-0.4,0.9-0.9l0.4-7.1L32.8,4.3c0-0.4-0.4-0.9-0.9-0.9S31,3.9,31,4.3 M34.1,2.8l-0.4,19.4
				l0.4,7.1c0,0.4,0.4,0.9,0.9,0.9s0.9-0.4,0.9-0.9l0.4-7.1L35.8,2.8c0-0.4-0.4-0.9-0.9-0.9h-0.2C34.3,1.9,34.1,2.4,34.1,2.8
				 M37.5,0.9c-0.6,0.2-0.9,0.4-0.9,1.1v27.4c0,0.4,0.4,0.9,0.9,1.1h23.9c4.7,0,8.6-3.9,8.6-8.6s-3.9-8.6-8.6-8.6
				c-1.1,0-2.4,0.2-3.2,0.6C57.6,6,51.1,0,43.1,0c-0.4,0-0.6,0-1.1,0C40.5,0,39,0.4,37.5,0.9"/>
		</defs>
		<clipPath id="SVGID_2_">
			<use xlink:href="#SVGID_1_"  style="overflow:visible;"/>
		</clipPath>
		
			<linearGradient id="SVGID_3_" gradientUnits="userSpaceOnUse" x1="-889.3721" y1="565.761" x2="-887.2162" y2="565.761" gradientTransform="matrix(0 62.1556 62.1556 0 -35031.0117 55201.8945)">
			<stop  offset="0" style="stop-color:#F8A01D"/>
			<stop  offset="0.7128" style="stop-color:#F26E23"/>
			<stop  offset="1" style="stop-color:#EF5826"/>
		</linearGradient>
		<rect class="st0" width="268.4" height="30.4"/>
	</g>
</g>
<g>
	<path d="M97.2,41.7c-0.1-0.1-0.1-0.2-0.1-0.3v-10h-3.3c-0.1,0-0.2,0-0.3-0.1c-0.1-0.1-0.1-0.2-0.1-0.3v-0.7c0-0.1,0-0.2,0.1-0.3
		c0.1-0.1,0.2-0.1,0.3-0.1h8.2c0.1,0,0.2,0,0.3,0.1c0.1,0.1,0.1,0.2,0.1,0.3V31c0,0.1,0,0.2-0.1,0.3c-0.1,0.1-0.2,0.1-0.3,0.1h-3.2
		v10c0,0.1,0,0.2-0.1,0.3c-0.1,0.1-0.2,0.1-0.3,0.1h-0.9C97.4,41.8,97.3,41.8,97.2,41.7z"/>
	<path d="M105,40.8c-0.8-0.8-1.2-1.9-1.3-3.5c0-0.3,0-0.8,0-1.4c0-0.6,0-1.1,0-1.4c0-1.5,0.5-2.7,1.3-3.5c0.8-0.8,2-1.2,3.4-1.2
		c1.4,0,2.5,0.4,3.4,1.2c0.8,0.8,1.3,2,1.3,3.5c0,0.7,0,1.1,0,1.4c0,0.3,0,0.8,0,1.4c0,1.6-0.5,2.7-1.3,3.5c-0.8,0.8-2,1.2-3.4,1.2
		C106.9,42,105.8,41.6,105,40.8z M110.6,39.7c0.5-0.5,0.8-1.4,0.9-2.5c0-0.7,0-1.1,0-1.4c0-0.2,0-0.7,0-1.4c0-1.1-0.3-2-0.9-2.5
		c-0.5-0.5-1.2-0.8-2.1-0.8c-0.9,0-1.6,0.3-2.2,0.8c-0.5,0.5-0.8,1.4-0.9,2.5c0,0.3,0,0.8,0,1.4c0,0.6,0,1,0,1.4
		c0,1.1,0.3,2,0.9,2.5c0.5,0.5,1.3,0.8,2.2,0.8C109.3,40.5,110,40.3,110.6,39.7z"/>
	<path d="M121.2,41.5c-0.7-0.3-1.2-0.7-1.6-1.2c-0.4-0.5-0.6-1-0.6-1.6c0-0.1,0-0.2,0.1-0.2c0.1-0.1,0.2-0.1,0.3-0.1h0.9
		c0.2,0,0.4,0.1,0.4,0.3c0.1,0.5,0.4,0.9,0.9,1.2c0.5,0.3,1.2,0.5,2,0.5c0.9,0,1.6-0.2,2.1-0.5c0.5-0.3,0.7-0.8,0.7-1.4
		c0-0.4-0.1-0.7-0.3-0.9c-0.2-0.2-0.6-0.4-1-0.6c-0.5-0.2-1.1-0.4-2-0.7c-0.9-0.2-1.6-0.5-2.1-0.8c-0.5-0.3-0.9-0.6-1.2-1.1
		c-0.3-0.4-0.4-0.9-0.4-1.6c0-0.6,0.2-1.2,0.5-1.6c0.3-0.5,0.8-0.9,1.4-1.1c0.6-0.3,1.4-0.4,2.2-0.4c0.9,0,1.6,0.2,2.3,0.5
		c0.6,0.3,1.1,0.7,1.4,1.2c0.3,0.5,0.5,1,0.5,1.4c0,0.1,0,0.2-0.1,0.2c-0.1,0.1-0.2,0.1-0.3,0.1h-0.9c-0.2,0-0.4-0.1-0.4-0.3
		c-0.1-0.5-0.3-0.9-0.8-1.2s-1-0.5-1.8-0.5c-0.8,0-1.4,0.1-1.8,0.4c-0.4,0.3-0.7,0.7-0.7,1.3c0,0.4,0.1,0.7,0.3,1
		c0.2,0.2,0.5,0.5,1,0.7c0.4,0.2,1.1,0.4,1.9,0.6c1,0.3,1.7,0.5,2.3,0.8c0.6,0.3,1,0.6,1.2,1c0.3,0.4,0.4,0.9,0.4,1.6
		c0,1.1-0.4,1.9-1.2,2.5S125,42,123.6,42C122.7,42,121.9,41.8,121.2,41.5z"/>
	<path d="M131.2,40.8c-0.8-0.8-1.2-1.9-1.3-3.4c0-0.3,0-0.8,0-1.5c0-0.7,0-1.2,0-1.5c0.1-1.4,0.5-2.6,1.3-3.4
		c0.8-0.8,1.9-1.2,3.5-1.2c1,0,1.9,0.2,2.6,0.5c0.7,0.4,1.2,0.8,1.6,1.4c0.4,0.6,0.6,1.2,0.6,1.9v0c0,0.1,0,0.2-0.1,0.2
		c-0.1,0.1-0.2,0.1-0.2,0.1h-0.9c-0.2,0-0.4-0.1-0.4-0.4c-0.2-0.8-0.5-1.4-1-1.8c-0.5-0.3-1.2-0.5-2-0.5c-2,0-3,1.1-3,3.2
		c0,0.3,0,0.8,0,1.4s0,1.1,0,1.4c0.1,2.2,1.1,3.2,3,3.2c0.8,0,1.5-0.2,2-0.5c0.5-0.3,0.8-0.9,1-1.8c0-0.1,0.1-0.2,0.2-0.3
		c0.1-0.1,0.2-0.1,0.3-0.1h0.9c0.1,0,0.2,0,0.3,0.1c0.1,0.1,0.1,0.1,0.1,0.2c0,0.7-0.2,1.3-0.6,1.9s-0.9,1-1.6,1.4
		c-0.7,0.4-1.6,0.5-2.6,0.5C133.2,42,132,41.6,131.2,40.8z"/>
	<path d="M142.6,40.8c-0.8-0.8-1.2-1.9-1.3-3.5c0-0.3,0-0.8,0-1.4c0-0.6,0-1.1,0-1.4c0-1.5,0.5-2.7,1.3-3.5c0.8-0.8,2-1.2,3.4-1.2
		c1.4,0,2.5,0.4,3.4,1.2c0.8,0.8,1.3,2,1.3,3.5c0,0.7,0,1.1,0,1.4c0,0.3,0,0.8,0,1.4c0,1.6-0.5,2.7-1.3,3.5c-0.8,0.8-2,1.2-3.4,1.2
		C144.5,42,143.4,41.6,142.6,40.8z M148.1,39.7c0.5-0.5,0.8-1.4,0.9-2.5c0-0.7,0-1.1,0-1.4c0-0.2,0-0.7,0-1.4c0-1.1-0.3-2-0.9-2.5
		c-0.5-0.5-1.2-0.8-2.1-0.8c-0.9,0-1.6,0.3-2.2,0.8c-0.5,0.5-0.8,1.4-0.9,2.5c0,0.3,0,0.8,0,1.4c0,0.6,0,1,0,1.4
		c0,1.1,0.3,2,0.9,2.5c0.5,0.5,1.3,0.8,2.2,0.8C146.9,40.5,147.6,40.3,148.1,39.7z"/>
	<path d="M153.3,41.7c-0.1-0.1-0.1-0.2-0.1-0.3V30.3c0-0.1,0-0.2,0.1-0.3c0.1-0.1,0.2-0.1,0.3-0.1h4.1c1.3,0,2.3,0.3,3.1,0.9
		c0.7,0.6,1.1,1.5,1.1,2.7c0,0.9-0.2,1.6-0.6,2.1c-0.4,0.6-1,0.9-1.8,1.2l2.6,4.5c0,0.1,0.1,0.1,0.1,0.2c0,0.1,0,0.2-0.1,0.2
		c-0.1,0.1-0.2,0.1-0.2,0.1H161c-0.2,0-0.3,0-0.4-0.1c-0.1-0.1-0.2-0.2-0.3-0.3l-2.5-4.3h-3v4.4c0,0.1,0,0.2-0.1,0.3
		c-0.1,0.1-0.2,0.1-0.3,0.1h-0.9C153.5,41.8,153.4,41.8,153.3,41.7z M157.7,35.6c1.7,0,2.5-0.7,2.5-2.1c0-1.4-0.8-2.1-2.5-2.1h-2.8
		v4.3H157.7z"/>
	<path d="M164.5,41.7c-0.1-0.1-0.1-0.2-0.1-0.3V30.3c0-0.1,0-0.2,0.1-0.3c0.1-0.1,0.2-0.1,0.3-0.1h0.8c0.2,0,0.3,0.1,0.4,0.3
		l3.6,6.9l3.6-6.9c0-0.1,0.1-0.1,0.1-0.2c0.1-0.1,0.2-0.1,0.3-0.1h0.8c0.1,0,0.2,0,0.3,0.1c0.1,0.1,0.1,0.2,0.1,0.3v11.1
		c0,0.1,0,0.2-0.1,0.3c-0.1,0.1-0.2,0.1-0.3,0.1h-0.8c-0.1,0-0.2,0-0.3-0.1c-0.1-0.1-0.1-0.2-0.1-0.3v-8.4l-2.8,5.5
		c-0.1,0.2-0.3,0.4-0.5,0.4h-0.5c-0.2,0-0.4-0.1-0.5-0.4l-2.9-5.5v8.4c0,0.1,0,0.2-0.1,0.3c-0.1,0.1-0.2,0.1-0.3,0.1h-0.8
		C164.6,41.8,164.5,41.8,164.5,41.7z"/>
</g>
</svg>
